<?xml version="1.0" encoding="utf-8"?>
<svg width="512" height="512" viewBox="0 0 512 512" xmlns="http://www.w3.org/2000/svg">
  <defs>
    <filter id="shadow-1" height="300%" width="300%" x="-100%" y="-100%">
      <feFlood flood-color="rgba(0, 0, 0, 1)" result="flood"/>
      <feComposite in="flood" in2="SourceGraphic" operator="atop" result="composite"/>
      <feGaussianBlur in="composite" stdDeviation="10" result="blur"/>
      <feOffset dx="0" dy="0" result="offset"/>
      <feComposite in="SourceGraphic" in2="offset" operator="over"/>
    </filter>
  </defs>
  <g style="fill: var(--icon-fill, #fff); filter: url(#shadow-1); touch-action: none;">
    <path d="M166 121c0 90 90 105 90 180 0 30-30 75-75 75s-75-45-45-120c-45 30-60 60-60 90 0 75 75 150 180 150s180-45 180-135c.67-133.125-153.4-177.596-195-240-30-45-15-75 15-105-60 15-90 57-90 105z" transform="translate(512, 0) scale(-1, 1) rotate(0, 256, 256)"/>
  </g>
</svg>
